# xmcd
#
# Track frame offsets:
#	150
#	9724
#	19656
#	31016
#	41168
#	52437
#	64530
#	76301
#	86131
#	99223
#	113924
#	124986
#	138549
#	151456
#	160803
#	169531
#	180157
#	191597
#	204136
#	216281
#
# Disc length: 3012 seconds
#
# Revision: 1
# Processed by: cddbd v1.5.2PL0 Copyright (c) Steve Scherf et al.
# Submitted via: audiograbber 1.83.01
#
DISCID=070bc214
DTITLE=Zillertaler Schürzenjäger - Legenden der Volksmusik - CD2
DYEAR=1900
DGENRE=Volkstümliche Musik
TTITLE0=Solojodler
TTITLE1=Tirol, i bin a Kind von dir
TTITLE2=Ich trage dein Bild in meinem Herzen
TTITLE3=Marsch der Freiwilligen Feuerwehr
TTITLE4=Verliebt in die Heimat
TTITLE5=Vergangene Zeiten
TTITLE6=Wir sind Schürzenjäger
TTITLE7=Timple-Boarischer
TTITLE8=Damenwahl
TTITLE9=Wenn i zu meiner zenzi geh'
TTITLE10=Flöschl, Flörggn, Flodn und Tramplan
TTITLE11=Hirschbichlalm Boarischer
TTITLE12=Hobby Polka
TTITLE13=Ein Edelweiss als Talismann
TTITLE14=Tiroler Buam-Polka
TTITLE15=Schürzenjäger-Ball
TTITLE16=Der alte Vater
TTITLE17=Wir sind Musikanten
TTITLE18=Strassen-Viecherei
TTITLE19=Hey-Man-Polka
EXTD=
EXTT0=
EXTT1=
EXTT2=
EXTT3=
EXTT4=
EXTT5=
EXTT6=
EXTT7=
EXTT8=
EXTT9=
EXTT10=
EXTT11=
EXTT12=
EXTT13=
EXTT14=
EXTT15=
EXTT16=
EXTT17=
EXTT18=
EXTT19=
PLAYORDER=
